# xmcd
#
# Track frame offsets: 
#        150
#        24112
#        40635
#        63747
#        93949
#        111689
#        131845
#        148210
#        162776
#        179411
#        204230
#        217305
#        242314
#        261941
#
# Disc length: 3811 seconds
#
# Revision: 4
# Processed by: cddbd v1.5.2PL0 Copyright (c) Steve Scherf et al.
# Submitted via: ExactAudioCopy v0.99pb5
#
DISCID=ce0ee10e
DTITLE=Waylon Jennings - Never Say Die (Live)
DYEAR=1900
DGENRE=Country
TTITLE0=Closing In On The Fire
TTITLE1=Waymore's Blues (With John Anderson)
TTITLE2=Never Say Die
TTITLE3=Medley: Amanda/A Couple More Years
TTITLE4=Drift Away
TTITLE5=Nothing Catches Jesus By Surprise
TTITLE6=Good Hearted Woman
TTITLE7=I'm Not Lisa (With Jessi Colter)
TTITLE8=Storms Never Last
TTITLE9=Never Been To Spain
TTITLE10=(I'm A) Ramblin' Man (With Montgomery Gentry)
TTITLE11=Goin' Down Rockin'
TTITLE12=I've Always Been Crazy (With Travis Tritt)
TTITLE13=Can't You See
EXTD=
EXTT0=
EXTT1=Special Guest Appearance\nby  John Anderson
EXTT2=
EXTT3=
EXTT4=
EXTT5=
EXTT6=
EXTT7=Special Guest Appearance\nby Jessi Colter
EXTT8=Special Guest Appearance\nby Jessi Colter
EXTT9=
EXTT10=Special Guest Appearance\nby Montgomery Gentry
EXTT11=
EXTT12=Special Guest Appearance by\nTravis Tritt
EXTT13=
PLAYORDER=
